<svg width="46" height="47" viewBox="0 0 46 47" fill="none" xmlns="http://www.w3.org/2000/svg">
<path d="M46 24.2488C46 34.7954 39.238 43.7176 29.9 46.7073V40.7278C29.9 38.715 29.072 36.9141 27.761 35.6193C33.787 34.5011 36.8 30.911 36.8 24.2488C36.8 21.365 36.225 19.0814 35.098 17.3041C35.604 15.2913 35.903 12.431 34.5 10.1239C31.786 10.1239 29.8885 11.76 28.773 13.1019C27.1055 12.6899 25.185 12.4781 23 12.4781C20.93 12.4781 19.021 12.7135 17.319 13.1961C16.215 11.8424 14.283 10.1239 11.5 10.1239C9.867 12.8076 10.534 15.7032 11.155 17.3276C9.913 19.105 9.2 21.3885 9.2 24.2488C9.2 30.911 12.213 34.5011 18.239 35.6193C17.4685 36.3844 16.8705 37.3143 16.5025 38.3737H13.8C12.144 38.3737 11.5 37.6203 10.6145 36.3962C9.729 35.172 8.7745 34.3481 7.636 34.0067C7.0265 33.9361 6.6125 34.4422 7.153 34.8895C8.9585 36.2196 9.085 38.3972 9.8095 39.8215C10.465 41.1045 11.822 41.9049 13.3515 41.9049H16.1V46.7073C6.762 43.7176 0 34.7954 0 24.2488C0 11.2421 10.2925 0.707336 23 0.707336C35.7075 0.707336 46 11.2421 46 24.2488Z" fill="#0B1000"/>
</svg>
