<svg width="46" height="46" viewBox="0 0 46 46" fill="none" xmlns="http://www.w3.org/2000/svg">
<path d="M40.8889 0H5.11111C2.28722 0 0 2.28722 0 5.11111V40.8889C0 43.7128 2.28722 46 5.11111 46H40.8889C43.7128 46 46 43.7128 46 40.8889V5.11111C46 2.28722 43.7128 0 40.8889 0ZM12.1082 35.7778C10.327 35.7778 8.88311 34.3339 8.88311 32.5527V21.1114C8.88567 19.3328 10.3296 17.8889 12.1082 17.8889C13.8894 17.8889 15.3333 19.3328 15.3333 21.114V32.5552C15.3333 34.3339 13.8894 35.7778 12.1082 35.7778ZM11.9958 14.6101C10.0254 14.6101 8.70933 13.2966 8.70933 11.5434C8.70933 9.79033 10.0229 8.47678 12.213 8.47678C14.1833 8.47678 15.4994 9.79033 15.4994 11.5434C15.4994 13.2966 14.1859 14.6101 11.9958 14.6101ZM35.213 35.7778C33.4906 35.7778 32.0927 34.3799 32.0927 32.6574V26.0002C32.0927 23.2964 30.429 23 29.8054 23C29.1819 23 27.1017 23.0894 27.1017 26.0002V32.6574C27.1017 34.3799 25.7038 35.7778 23.9813 35.7778H23.7743C22.0519 35.7778 20.654 34.3799 20.654 32.6574V21.114C20.654 19.3328 22.0979 17.8889 23.8791 17.8889C25.6603 17.8889 27.1042 19.3328 27.1042 21.114C27.1042 21.114 27.8249 17.8889 32.7213 17.8889C35.8366 17.8889 38.3333 20.3857 38.3333 26.0002V32.6574C38.3333 34.3799 36.9354 35.7778 35.213 35.7778Z" fill="#0B1000"/>
</svg>
