<svg width="46" height="47" viewBox="0 0 46 47" fill="none" xmlns="http://www.w3.org/2000/svg">
<path d="M23.0001 0.707336C10.3181 0.707336 0.000148423 11.0253 0.000148423 23.7073C0.000148423 27.6673 1.02315 31.5613 2.96315 34.9973L0.0371484 45.4373C-0.0588516 45.7803 0.0341485 46.1483 0.282148 46.4033C0.473148 46.6003 0.733148 46.7073 1.00015 46.7073C1.08015 46.7073 1.16115 46.6973 1.24015 46.6783L12.1361 43.9793C15.4631 45.7653 19.2101 46.7073 23.0001 46.7073C35.6821 46.7073 46.0001 36.3893 46.0001 23.7073C46.0001 11.0253 35.6821 0.707336 23.0001 0.707336ZM34.5701 31.8233C34.0781 33.1853 31.7181 34.4283 30.5841 34.5953C29.5661 34.7443 28.2781 34.8083 26.8641 34.3643C26.0071 34.0943 24.9071 33.7363 23.4981 33.1353C17.5751 30.6093 13.7071 24.7203 13.4111 24.3313C13.1161 23.9423 11.0001 21.1703 11.0001 18.3013C11.0001 15.4323 12.5251 14.0213 13.0671 13.4373C13.6091 12.8533 14.2481 12.7073 14.6421 12.7073C15.0361 12.7073 15.4291 12.7123 15.7741 12.7283C16.1371 12.7463 16.6241 12.5913 17.1031 13.7293C17.5951 14.8973 18.7761 17.7663 18.9221 18.0593C19.0701 18.3513 19.1681 18.6923 18.9721 19.0813C18.7761 19.4703 18.6781 19.7133 18.3821 20.0543C18.0861 20.3953 17.7621 20.8143 17.4961 21.0763C17.2001 21.3673 16.8931 21.6823 17.2371 22.2663C17.5811 22.8503 18.7661 24.7593 20.5221 26.3053C22.7771 28.2913 24.6801 28.9073 25.2701 29.1993C25.8601 29.4913 26.2051 29.4423 26.5491 29.0533C26.8931 28.6633 28.0251 27.3503 28.4181 26.7673C28.8111 26.1843 29.2051 26.2803 29.7471 26.4753C30.2891 26.6693 33.1922 28.0793 33.7822 28.3713C34.3722 28.6633 34.7662 28.8093 34.9142 29.0523C35.0622 29.2943 35.0621 30.4623 34.5701 31.8233Z" fill="#0B1000"/>
</svg>
